<svg width="32" height="24" viewBox="0 0 32 24" fill="none" xmlns="http://www.w3.org/2000/svg">
<path fill-rule="evenodd" clip-rule="evenodd" d="M9.5 13C10.0304 13 10.5391 13.2107 10.9142 13.5858C11.2893 13.9609 11.5 14.4696 11.5 15V19C11.5 19.5304 11.2893 20.0391 10.9142 20.4142C10.5391 20.7893 10.0304 21 9.5 21H5.5C4.96957 21 4.46086 20.7893 4.08579 20.4142C3.71071 20.0391 3.5 19.5304 3.5 19V15C3.5 14.4696 3.71071 13.9609 4.08579 13.5858C4.46086 13.2107 4.96957 13 5.5 13H9.5ZM19.5 13C20.0304 13 20.5391 13.2107 20.9142 13.5858C21.2893 13.9609 21.5 14.4696 21.5 15V19C21.5 19.5304 21.2893 20.0391 20.9142 20.4142C20.5391 20.7893 20.0304 21 19.5 21H15.5C14.9696 21 14.4609 20.7893 14.0858 20.4142C13.7107 20.0391 13.5 19.5304 13.5 19V15C13.5 14.4696 13.7107 13.9609 14.0858 13.5858C14.4609 13.2107 14.9696 13 15.5 13H19.5ZM9.5 3C10.0304 3 10.5391 3.21071 10.9142 3.58579C11.2893 3.96086 11.5 4.46957 11.5 5V9C11.5 9.53043 11.2893 10.0391 10.9142 10.4142C10.5391 10.7893 10.0304 11 9.5 11H5.5C4.96957 11 4.46086 10.7893 4.08579 10.4142C3.71071 10.0391 3.5 9.53043 3.5 9V5C3.5 4.46957 3.71071 3.96086 4.08579 3.58579C4.46086 3.21071 4.96957 3 5.5 3H9.5ZM19.5 3C20.0304 3 20.5391 3.21071 20.9142 3.58579C21.2893 3.96086 21.5 4.46957 21.5 5V9C21.5 9.53043 21.2893 10.0391 20.9142 10.4142C20.5391 10.7893 20.0304 11 19.5 11H15.5C14.9696 11 14.4609 10.7893 14.0858 10.4142C13.7107 10.0391 13.5 9.53043 13.5 9V5C13.5 4.46957 13.7107 3.96086 14.0858 3.58579C14.4609 3.21071 14.9696 3 15.5 3H19.5Z" fill="#1b72b5"/>
<rect x="23.5" y="3" width="5" height="8" rx="1.5" fill="#1b72b5"/>
<rect x="23.5" y="13" width="5" height="8" rx="1.5" fill="#1b72b5"/>
</svg>
