<svg width="32" height="24" viewBox="0 0 14 19" fill="none" xmlns="http://www.w3.org/2000/svg">
<rect width="4" height="19" rx="1.5" fill="#7E899B"/>
<path d="M13.9755 6.33307C13.984 7.25708 12.842 7.69727 12.2281 7.00663L7.47943 1.66436C6.90619 1.01946 7.36399 3.73536e-07 8.22684 4.48969e-07L12.9264 8.59818e-07C13.4751 9.07787e-07 13.9213 0.442133 13.9264 0.990808L13.9755 6.33307Z" fill="#7E899B"/>
<path d="M8.44984 18.9747C7.55399 18.9839 7.09889 17.9011 7.73239 17.2676L12.2929 12.7071C12.9229 12.0771 14 12.5233 14 13.4142L14 17.9276C14 18.4758 13.5586 18.9218 13.0103 18.9275L8.44984 18.9747Z" fill="#7E899B"/>
</svg>
